/* XPM */
static char * up_0_xpm[] = {
/* columns rows colors chars-per-pixel */
"15 15 2 1",
" 	c None",
".	c yellow",
/* pixels */
"               ",
"               ",
"               ",
"               ",
" ..         .. ",
" ...       ... ",
" ....     .... ",
" .....   ..... ",
" ...... ...... ",
" ............. ",
"  ...........  ",
"  ...........  ",
"   .........   ",
"     .....     ",
"               "};
