/* XPM */
static char *result[] = {
/* columns rows colors chars-per-pixel */
"15 15 9 1 ",
"  c black",
". c #020201",
"X c #17110D",
"o c #523C31",
"O c #7D5C4B",
"+ c #946C58",
"@ c #B4846C",
"# c #CF987C",
"$ c #F8B694",
/* pixels */
"               ",
"               ",
"               ",
"               ",
"      o@+      ",
"     $$$$$X    ",
"    o$$$$$O    ",
"    @$$$$$$    ",
"    +$$$$$#    ",
"     $$$$$X    ",
"     XO$#X.    ",
"               ",
"               ",
"               ",
"               "
};

