/* XPM */
static char *result[] = {
/* columns rows colors chars-per-pixel */
"20 20 6 1 ",
"  c black",
". c #53FDD8",
"X c #546D8E",
"o c #99D9EA",
"O c white",
"+ c None",
/* pixels */
"++++++++++++++++++++",
"++++++++++++++++++++",
"+++++++++    +++++++",
"+++++++  .... ++++++",
"++++++ ....... +++++",
"++++++ ...      ++++",
"+++++ ...  XoOOo +++",
"+++++ ... XXoooo +++",
"+++   ...  XXXXX +++",
"+++ . ....      ++++",
"++ .. ........ +++++",
"++ .. ........ +++++",
"++ .. ........ +++++",
"++ .. ........ +++++",
"++ .. ..... .. +++++",
"++    ....  .. +++++",
"+++++ .... ... +++++",
"+++++ .... ... +++++",
"++++++         +++++",
"++++++++++++++++++++"
};

